<svg width="28" height="24" xmlns="http://www.w3.org/2000/svg"><path d="M21.438 0c.904 0 1.64.715 1.64 1.594v3.181h3.555c.754 0 1.367.596 1.367 1.329V22.67c0 .733-.613 1.329-1.367 1.329H15.699c-.364 0-.707-.138-.965-.388l-1.825-1.768a1.308 1.308 0 0 1-.185-1.659l.025-.038a2.025 2.025 0 0 0 .253-1.663l-.007-.028a2.074 2.074 0 0 0-1.077-1.303l-.04-.02a1.323 1.323 0 0 1-.699-1.525l.604-2.204c.165-.6.747-1.014 1.386-.985l.046.002a2.155 2.155 0 0 0 1.6-.61l.022-.02c.431-.42.661-.99.632-1.567l-.003-.044a1.34 1.34 0 0 1 1.01-1.35l2.266-.594a1.39 1.39 0 0 1 1.571.674l.022.04c.272.514.764.894 1.35 1.045l.03.007a2.18 2.18 0 0 0 1.702-.253l.41-.258a.835.835 0 0 1 1.135.237.784.784 0 0 1-.244 1.102l-.41.258a3.865 3.865 0 0 1-3.021.453l-.022-.005A3.763 3.763 0 0 1 18.96 9.83l-1.848.485a3.622 3.622 0 0 1-1.115 2.603l-.018.017a3.822 3.822 0 0 1-2.666 1.082l-.493 1.798a3.677 3.677 0 0 1 1.76 2.229l.006.022c.266.95.132 1.96-.365 2.798l1.591 1.542H26.36V6.369H6.562v16.037h4.905c.453 0 .82.357.82.797 0 .44-.367.797-.82.797H6.289c-.754 0-1.367-.596-1.367-1.329v-3.446H1.64C.736 19.225 0 18.51 0 17.631V1.594C0 .715.736 0 1.64 0h19.797Zm-4.68 15.871c.457-1.666 2.223-2.661 3.939-2.217 1.715.444 2.739 2.161 2.282 3.828a3.121 3.121 0 0 1-1.497 1.902 3.27 3.27 0 0 1-2.442.316c-1.716-.445-2.74-2.162-2.282-3.829Zm3.11-.728c-.697 0-1.337.453-1.525 1.139-.109.396-.052.81.16 1.164a1.607 1.607 0 0 0 2.157.558 1.53 1.53 0 0 0 .733-.933c.224-.817-.278-1.659-1.118-1.877a1.621 1.621 0 0 0-.406-.051Zm1.57-13.549H1.64v16.037h3.28V6.104c0-.733.614-1.329 1.368-1.329h15.149v-3.18ZM8.886 8.323c.377 0 .683.297.683.664a.674.674 0 0 1-.683.664.674.674 0 0 1-.684-.664c0-.367.306-.664.684-.664Zm2.05 0c.378 0 .684.297.684.664a.674.674 0 0 1-.684.664.674.674 0 0 1-.683-.664c0-.367.306-.664.684-.664Zm2.051 0c.378 0 .684.297.684.664a.674.674 0 0 1-.684.664.674.674 0 0 1-.683-.664c0-.367.306-.664.683-.664Z" fill="#FFF" fill-rule="nonzero"/></svg>
