<svg xmlns="http://www.w3.org/2000/svg" width="20" height="29" viewBox="0 0 20 29"><path fill="#F68A45" fill-rule="nonzero" d="M10.674.55c1.209 5.124 2.863 7.145 4.67 9.34 1.172 1.43 2.392 2.928 3.624 5.298.316.604.575 1.243.75 1.905a8.25 8.25 0 0 1 .282 2.09c0 1.337-.246 2.591-.739 3.753s-1.232 2.219-2.205 3.171c-.986.953-2.065 1.673-3.238 2.161-1.185.488-2.451.732-3.812.732-1.36 0-2.628-.244-3.812-.732-1.173-.476-2.253-1.208-3.238-2.16a10.117 10.117 0 0 1-2.217-3.172C.246 21.774 0 20.52 0 19.184c0-.686.094-1.348.258-1.975s.387-1.22.68-1.812c1.197-2.451 2.452-3.973 3.66-5.448C6.416 7.74 8.118 5.662 9.314.539c.082-.372.469-.604.844-.523a.69.69 0 0 1 .528.523l-.012.012ZM4.88 16.745a.905.905 0 0 1 .985.814c.117 1.196.375 2.288.88 3.24.48.918 1.208 1.708 2.264 2.312a.903.903 0 0 1 .328 1.232.921.921 0 0 1-1.243.325c-1.36-.79-2.311-1.824-2.944-3.02-.646-1.209-.95-2.568-1.08-3.915a.908.908 0 0 1 .821-.976l-.011-.012Zm9.372-5.97c-1.595-1.94-3.073-3.753-4.27-7.424-1.196 3.694-2.721 5.541-4.316 7.481-1.162 1.406-2.358 2.87-3.484 5.17-.247.5-.446 1.01-.575 1.545a6.813 6.813 0 0 0-.211 1.638c0 1.162.211 2.23.622 3.218.422.987 1.055 1.893 1.9 2.718.856.836 1.783 1.452 2.792 1.87a8.632 8.632 0 0 0 3.272.616c1.185 0 2.276-.21 3.285-.616 1.009-.418 1.935-1.034 2.792-1.87a8.55 8.55 0 0 0 1.9-2.718c.422-.988.622-2.056.622-3.218 0-.604-.082-1.185-.235-1.731a8.394 8.394 0 0 0-.645-1.626c-1.161-2.266-2.334-3.695-3.46-5.054h.011Z"/></svg>
