<svg xmlns="http://www.w3.org/2000/svg" width="42" height="20" viewBox="0 0 42 20"><g fill="#F68A45" fill-rule="nonzero"><path d="M10.55 0H8.567c-.4 0-.75.164-1.017.41a1.376 1.376 0 0 0-.417 1.001v1.395H5c-.4 0-.75.147-1.017.41-.25.246-.4.574-.416.935v1.46H1.433c-.4 0-.75.164-1.016.41A1.35 1.35 0 0 0 0 7.022v5.94c0 .393.167.738.433 1 .267.263.617.41 1.017.41h2.133v1.625c0 .393.15.738.417 1 .25.247.583.394.95.41h2.2v1.182c0 .394.167.738.417 1 .25.247.583.395.95.411h2.05c.4 0 .75-.164 1.016-.41A1.35 1.35 0 0 0 12 18.589V1.427c0-.393-.167-.738-.417-1a1.393 1.393 0 0 0-1.016-.41L10.55 0ZM3.5 13.06s-.067.05-.117.05H1.4s-.083-.017-.117-.05a.148.148 0 0 1-.05-.115V7.022s.017-.082.05-.115a.152.152 0 0 1 .117-.049h1.983s.084 0 .1.05c.034.032.05.065.05.098v5.939c0 .05-.016.082-.05.115H3.5Zm3.617-8.843V15.98s-.017.082-.05.099c-.017.033-.067.049-.1.049h-2s-.067-.016-.084-.05a.148.148 0 0 1-.05-.114V4.2s.017-.082.05-.115A.152.152 0 0 1 5 4.036h1.983s.084.017.117.05c.017.016.033.049.05.081l-.033.05Zm3.533 14.47s-.067.05-.117.05h-2s-.066-.017-.083-.05c-.033-.016-.05-.065-.05-.098V1.444c0-.05.017-.082.05-.115.017-.033.067-.05.1-.05h1.983s.084.017.117.05.05.066.05.115v17.145s0 .082-.05.115v-.017ZM14 9h14v2H14zM41.583 6.031a1.42 1.42 0 0 0-1.016-.41h-2.15V4.223c0-.395-.15-.74-.417-1.003a1.49 1.49 0 0 0-1.017-.41H34.85V1.412c0-.394-.167-.74-.417-1.002A1.49 1.49 0 0 0 33.417 0h-2.05c-.367.016-.7.164-.95.41-.25.247-.417.609-.417 1.003v17.174c0 .394.167.74.433 1.002.267.263.617.411 1.017.411H33.5c.367-.016.7-.164.95-.41.25-.247.417-.609.417-1.003v-1.184H37c.4 0 .75-.164 1.017-.41a1.38 1.38 0 0 0 .416-1.003v-1.627h2.134c.383 0 .75-.164 1.016-.41.267-.247.417-.609.417-.987V7.034c0-.395-.167-.74-.417-1.003Zm-8.05 12.67s-.066.05-.083.05h-2s-.083-.016-.117-.05a.148.148 0 0 1-.05-.114V1.397s.017-.082.05-.115a.365.365 0 0 1 .084-.05h2s.083 0 .116.05c.034.033.05.066.05.115v17.19c0 .033-.016.082-.05.098v.017Zm3.617-2.694s-.017.082-.05.115a.152.152 0 0 1-.117.049H35s-.083-.017-.1-.05c-.017-.032-.05-.065-.05-.114V4.224s.017-.083.05-.116a.152.152 0 0 1 .117-.049H37s.083.017.117.05c.033.032.05.065.05.115v11.783h-.017Zm3.533-2.926s-.066.05-.116.05h-1.984s-.083-.017-.116-.05c-.017-.016-.05-.049-.05-.082V7.034s.016-.082.05-.115c.016-.033.066-.05.116-.05h1.984s.083.017.1.05c.033.033.05.065.05.115v5.932s0 .082-.05.115h.016Z"/></g></svg>
