<svg xmlns="http://www.w3.org/2000/svg" width="22" height="27" viewBox="0 0 22 27"><path fill="#F68A45" fill-rule="nonzero" d="M10.447 26.99V22.86H7.583c-.244 0-.498-.02-.742-.02-.743-.021-1.432-.042-2.09-.176-2.61-.568-4.593-2.9-4.71-5.542-.032-.795-.02-1.59-.02-2.426v-.371h5.186c1.369 0 2.567.34 3.67 1.063.096.051.18.103.276.144l.16.073h.286l.753-.155.042-.65V8.576H7.817c-.372 0-.743 0-1.114-.02-.7-.021-1.422-.052-2.058-.218C2.035 7.71.126 5.43.02 2.807a37.932 37.932 0 0 1 0-2.456V0h5.908l.266.052c.233.051.456.092.69.154 2.757.692 4.709 3.107 4.73 5.894v3.653l1.369-.732a1.98 1.98 0 0 0 .307-.176c1.04-.64 2.1-.96 3.235-.96H22v.66c0 1.012.021 1.962-.127 2.89-.435 2.818-3.045 4.965-6.078 4.986h-4.201V27h-1.178l.032-.02v.01ZM9.25 21.695c.18 0 .307-.02.403-.052l.636-.093.117-.64c.233-2.786-1.761-5.15-4.54-5.387A15.578 15.578 0 0 0 4.4 15.47c-.382 0-.785 0-1.177.021-.382 0-.775.02-1.167.02h-.732l-.096.702c-.318 2.591 1.58 5.047 4.17 5.378.752.093 1.505.103 2.195.103h1.654Zm8.189-12.643c-.637 0-1.157.03-1.644.092-1.22.155-2.366.826-3.15 1.848-.818 1.063-1.157 2.394-.945 3.654l.127.701.732-.04c.446-.021.891-.032 1.337-.042 1.05-.02 2.143-.041 3.214-.248 2.344-.464 4.105-2.962 3.68-5.253l-.127-.65h-.678c-.414 0-.828-.021-1.252-.021-.435-.02-.86-.02-1.294-.02v-.021ZM1.293 1.796c-.435 2.529 1.39 5.037 3.978 5.47.636.114 1.273.114 1.877.114h3.15l.086-.713c.297-2.549-1.39-4.892-3.84-5.325-1.04-.186-2.09-.196-3.108-.196-.435 0-.87 0-1.294-.021l-.722-.031-.127.692v.01Z"/></svg>
